<svg width="1920" height="1080" viewBox="0 0 1920 1080" fill="none" xmlns="http://www.w3.org/2000/svg">
<g clip-path="url(#clip0_33_148)">
<rect width="1920" height="1080" fill="url(#paint0_linear_33_148)"/>
<ellipse cx="1215.58" cy="412.651" rx="167.619" ry="166.223" fill="#FDF1DC"/>
<path d="M1086.96 1181.77C3026.42 848.547 1998.24 778.465 1998.24 427.81C1998.24 427.81 225.448 416.988 54.4999 427.81C-116.448 438.632 -852.5 1515 1086.96 1181.77Z" fill="url(#paint1_radial_33_148)"/>
<path opacity="0.2" d="M1267.23 761.846C1510.51 776.045 1939.15 717.841 2041 652.286C2041 652.286 1512.46 720.853 1326.17 717.772C764.517 708.482 98.6111 531 98.6111 531C51.8467 531 640.689 725.278 1267.23 761.846Z" fill="url(#paint2_linear_33_148)"/>
<path opacity="0.2" d="M1480.7 486.825C1187.84 526.837 867.788 469.03 909.556 457.079C909.556 457.079 1235.61 483.872 1480.7 486.825Z" fill="white"/>
<path opacity="0.2" d="M1558.6 536.476C1627.01 586.429 1025.1 563.763 1124.15 556.207C1223.2 548.652 1451.77 566.158 1558.6 536.476Z" fill="url(#paint3_linear_33_148)"/>
<path d="M2096 869.121C1924.65 1133.88 1434.1 1341 990.995 1341C679.816 1341 312.848 1239.03 61.8829 1086.52C6.6272 1052.95 -55.1453 986.939 -98.491 926.614C-140.208 868.554 -133.873 713.018 -103.237 694.917C10.0496 627.982 234.494 615.967 505.102 630.465C1202.03 667.803 1506.71 865.295 2096 865.295V869.121Z" fill="url(#paint4_linear_33_148)"/>
<path opacity="0.25" d="M2059.41 921C2072.85 904.383 2085.08 887.485 2096 870.348V866.502C1797.2 866.502 1572.35 814.376 1331.33 758.498C1102.03 705.34 858.095 648.787 521.911 630.492C254.163 615.921 32.09 627.997 -80 695.268V731.775C32.09 664.504 254.163 652.428 521.911 666.999C858.095 685.294 1102.03 760.1 1331.33 813.258C1562.41 866.832 1778.63 916.957 2059.41 921Z" fill="url(#paint5_linear_33_148)"/>
<path d="M1935.39 855.552C2172.5 1142.5 2432.12 1477.02 2026 1570C1740.79 1635.3 404.74 1574.46 132.842 1447.23C72.9773 1419.22 -1.76671 1354.31 -58.0605 1292.25C-112.241 1232.52 -110.346 1106.53 -87.2381 1078.75C-1.78819 976.026 161.822 855.942 413.825 816.26C1062.84 714.063 1198.75 997.901 1934.34 851.039L1935.39 855.552Z" fill="url(#paint6_linear_33_148)"/>
<path d="M628.913 790.43L758.437 669.541H583.199L499.79 777.552L628.913 790.43Z" fill="#220136" fill-opacity="0.5"/>
<path d="M2091.77 291.761C2048.01 291.761 2023.2 269.094 1969.87 269.094C1942.64 269.094 2145.1 334.708 2091.77 359.761C2042.27 377.496 1802.25 362.148 1703.2 359.761C1604.15 357.375 1520.34 427.762 1520.34 427.762L1962.25 435.319L1947.01 450.43L2305.1 465.541V216.206C2305.1 216.206 2244.15 174.02 2206.06 208.65C2156.19 253.983 2135.54 291.761 2091.77 291.761Z" fill="#B56C7F"/>
<path d="M253.903 291.925C305.991 291.925 335.515 269.22 398.99 269.22C431.396 269.22 489.67 337.335 553.146 362.431C612.056 380.196 679.514 360.041 716.369 360.041C752.641 360.041 934 428.156 934 428.156L408.058 435.726L426.194 450.863L0 466V216.242C0 216.242 72.5437 173.984 117.883 208.673C177.238 254.083 201.815 291.925 253.903 291.925Z" fill="#B46A7E"/>
<path d="M628.913 604.563V556.207L575.58 593.985V684.652H667.008L674.627 631.763L628.913 604.563Z" fill="url(#paint7_linear_33_148)"/>
<path d="M628.913 605.772V556.207L735.58 593.985L758.437 669.541L667.008 684.652L674.627 631.763L628.913 605.772Z" fill="url(#paint8_linear_33_148)"/>
</g>
<defs>
<linearGradient id="paint0_linear_33_148" x1="114.286" y1="-128.571" x2="128.754" y2="1234.62" gradientUnits="userSpaceOnUse">
<stop offset="0.105158" stop-color="#FF2E53"/>
<stop offset="0.605776" stop-color="#FEDA42"/>
<stop offset="0.915348" stop-color="#FEA747"/>
</linearGradient>
<radialGradient id="paint1_radial_33_148" cx="0" cy="0" r="1" gradientUnits="userSpaceOnUse" gradientTransform="translate(1072.16 427.81) rotate(90) scale(975.05 6931.77)">
<stop stop-color="#F7C66B"/>
<stop offset="0.117647" stop-color="#FF868C"/>
<stop offset="0.333253" stop-color="#661B94"/>
<stop offset="0.950221" stop-color="#661B94"/>
</radialGradient>
<linearGradient id="paint2_linear_33_148" x1="1068.5" y1="764" x2="1068.5" y2="531" gradientUnits="userSpaceOnUse">
<stop stop-color="white"/>
<stop offset="1" stop-color="#FCEEBC" stop-opacity="0.9"/>
</linearGradient>
<linearGradient id="paint3_linear_33_148" x1="1346.99" y1="593.815" x2="1331.89" y2="515.476" gradientUnits="userSpaceOnUse">
<stop stop-color="white"/>
<stop offset="1" stop-color="#FCEEBC" stop-opacity="0.9"/>
</linearGradient>
<linearGradient id="paint4_linear_33_148" x1="1916.42" y1="1050.06" x2="4.61492" y2="306.181" gradientUnits="userSpaceOnUse">
<stop stop-color="#4C1F54"/>
<stop offset="1" stop-color="#754A6D"/>
</linearGradient>
<linearGradient id="paint5_linear_33_148" x1="960.156" y1="610.22" x2="934.155" y2="1013.44" gradientUnits="userSpaceOnUse">
<stop stop-color="white"/>
<stop offset="1" stop-color="#FFD987"/>
</linearGradient>
<linearGradient id="paint6_linear_33_148" x1="1812.81" y1="1062.32" x2="-151.991" y2="981.769" gradientUnits="userSpaceOnUse">
<stop stop-color="#36023F"/>
<stop offset="1" stop-color="#6C3361"/>
</linearGradient>
<linearGradient id="paint7_linear_33_148" x1="609.865" y1="556.207" x2="606.119" y2="760.209" gradientUnits="userSpaceOnUse">
<stop stop-color="#09000E"/>
<stop offset="1" stop-color="#380156"/>
</linearGradient>
<linearGradient id="paint8_linear_33_148" x1="651.77" y1="631.763" x2="803.232" y2="517.213" gradientUnits="userSpaceOnUse">
<stop stop-color="#8B2D7C"/>
<stop offset="1" stop-color="#F5C471"/>
</linearGradient>
<clipPath id="clip0_33_148">
<rect width="1920" height="1080" fill="white"/>
</clipPath>
</defs>
</svg>
